<?xml version="1.0" encoding="iso-8859-1"?>
<!-- Generator: Adobe Illustrator 15.0.0, SVG Export Plug-In . SVG Version: 6.00 Build 0)  -->
<!DOCTYPE svg PUBLIC "-//W3C//DTD SVG 1.1//EN" "http://www.w3.org/Graphics/SVG/1.1/DTD/svg11.dtd">
<svg version="1.1" id="money" xmlns="http://www.w3.org/2000/svg" xmlns:xlink="http://www.w3.org/1999/xlink" x="0px" y="0px"
	 width="141.73px" height="141.73px" viewBox="0 0 141.73 141.73" style="enable-background:new 0 0 141.73 141.73;"
	 xml:space="preserve">
<g>
	<path style="fill-rule:evenodd;clip-rule:evenodd;fill:#598B3F;" d="M80.649,27.226c0,0,3.684-1.639,5.978-1.888
		c2.297-0.249,3.22-0.659,4.893-1.498c1.673-0.842,2.525-2.125,4.112-3.672c1.585-1.544,6.37-4.966,6.37-4.966l0.018,4.159
		l7.433-0.69l-3.483,2.713l9.2,2.116l-3.878,1.627l9.283,5.771l-5.311,0.416c0,0,5.557,1.868,5.517,2.211
		c-0.043,0.341-2.784,1.232-2.784,1.232l4.938,2.664l-2.784,1.229l6.307,4.391l-3.76,0.593l5.788,4.333l-5.19-0.622l4.687,4.721
		l-4.798,0.467l6.828,4.459l-5.837,0.338l4.104,5.172l-5.064-1.65l5.474,6.897l-6.101-1.779l5.989,6.963
		c0,0-5.193-2.017-5.001-2.166c0.194-0.151,3.46,6.136,3.208,8.184c0.188-1.535-8.123-6.705-8.123-6.705l0.658,3.196l-3.376-2.489
		l-0.502,4.091l-2.148-3.896l-0.095,9.329l-2.915-1.917l0.098,7.791l-2.338-2.363l-1,8.172l-2.334-2.363l-1.266,6.058l-1.237-2.74
		c0,0-3.839,7.114-5.826,9.108c1.32-2.252-2.183-7.862-1.787-11.091c0.192-0.149-2.561,3.821-2.561,3.821l-2.735-7.582l-1.467,3.439
		l-1.704-7.452l-2.495,3.312l-0.613-7.834l-2.555,3.823l0.149-9.807l-2.1,4.396l-1.068-8.404l-3.125,4.27l-0.925-5.284l-5.731,8.599
		l-0.02-4.133l-4.76,9.223l-0.533-4.193l-3.239,5.276l0.656-9.725l-2.867,2.229L57,71.96l-2.744,1.211l2.088-4.388l-3.83,1.595
		l2.271-5.914l-7.08,2.747l5.525-7.066l-4.339,1.535c0,0,4.139-7.066,3.927-6.748c-0.209,0.321-3.314,1.664-3.314,1.664l2.392-6.938
		l-3.314,1.664l2.332-6.43l-2.744,1.22l4.955-6.636l-3.706,0.59l4.708-4.603l-4.282,1.04l6.945-5.892l-4.222,0.533l6.766-4.368
		l-5.374-1.764l6.376-2.254l-4.202-1.976l8.616-0.092l-3.222-3.755l6.335,1.166c0,0,2.18,0.785,2.845,1.034
		c0.664,0.252,1.572,0.215,2.325,1.166c0.754,0.954,1.313,1.518,1.937,2.111c0.624,0.59,1.51,1.905,1.81,2.286
		c0.301,0.381,0.693,1.464,1.358,1.713C78.802,26.661,80.649,27.226,80.649,27.226z"/>
	<path style="fill-rule:evenodd;clip-rule:evenodd;fill:#443A5F;" d="M75.909,26.713c0,0-9.28-5.262-15.221-1.366
		c0,0-9.572,5.637-6.88,14.759c-0.189,0.338,3.503,10.458,14.929,12.262c0,0,12.487,0.295,12.757-14.152
		C81.42,37.952,82.715,32.035,75.909,26.713z"/>
	<polygon style="fill-rule:evenodd;clip-rule:evenodd;fill:#403656;" points="62.175,42.575 41.616,59.279 33.473,80.649 
		34.635,107.066 61.399,102.988 85.444,80.455 85.639,55.59 	"/>
	<path style="fill-rule:evenodd;clip-rule:evenodd;fill:#403656;" d="M74.606,72.796c0,0-8.524,6.393-7.367,13.433
		c0,0,1.286,11.091,10.684,12.328c0.231,0.31,10.938,1.034,17.177-8.732c0,0,5.29-11.36-7.765-17.484
		C87.065,72.303,82.193,68.708,74.606,72.796z"/>
	<path style="fill-rule:evenodd;clip-rule:evenodd;fill:#403656;" d="M67.603,89.583c0,0-10.667-0.098-13.963,6.219
		c0,0-5.623,9.614,1.166,16.314c0,0.39,8.143,7.481,19.004,3.497c0,0,11.054-5.826,4.268-18.646
		C77.883,96.772,76.139,90.943,67.603,89.583z"/>
	<path style="fill-rule:evenodd;clip-rule:evenodd;fill:#443A5F;" d="M58.938,22.205c0,0-9.87-3.83-15.089,0.959
		c0,0-8.507,7.081-4.494,15.768c-0.134,0.364,5.004,9.893,16.45,9.95c0,0,12.253-1.612,10.332-16.06
		C66.024,32.57,66.394,26.475,58.938,22.205z"/>
	<path style="fill-rule:evenodd;clip-rule:evenodd;fill:#403656;" d="M94.744,58.538c0,0,6.983-8.152,4.251-14.786
		c0,0-3.767-10.552-13.268-9.566c-0.298-0.246-10.858,1.53-14.708,12.391c0,0-2.569,12.122,11.385,15.195
		C82.675,61.751,88.223,64.183,94.744,58.538z"/>
	<path style="fill-rule:evenodd;clip-rule:evenodd;fill:#403656;" d="M102.593,58.913c0,0-6.379-8.538-13.411-7.378
		c0,0-11.07,1.289-12.305,10.701c-0.309,0.232-1.033,10.956,8.719,17.206c0,0,11.34,5.299,17.452-7.779
		C103.085,71.392,106.677,66.515,102.593,58.913z"/>
	<path style="fill-rule:evenodd;clip-rule:evenodd;fill:#443A5F;" d="M91.646,81.34c0,0-1.306-9.436-7.398-11.46
		c0,0-9.337-3.615-14.33,3.343c-0.341,0.055-5.419,8.166-0.418,17.042c0,0,6.603,8.741,16.956,1.214
		C86.602,91.284,91.539,88.99,91.646,81.34z"/>
	<path style="fill-rule:evenodd;clip-rule:evenodd;fill:#443A5F;" d="M27.44,40.098c0,0-7.104,7.988-4.514,14.616
		c0,0,3.549,10.555,13.081,9.827c0.295,0.255,11.016-1.24,15.169-12.05c0,0,2.89-12.165-11.259-15.453
		C39.642,37.056,34.094,34.549,27.44,40.098z"/>
	<path style="fill-rule:evenodd;clip-rule:evenodd;fill:#443A5F;" d="M32.753,59.07c0,0-10.492-2.26-15.026,3.285
		c0,0-7.521,8.35-2.096,16.264C15.554,79,22.199,87.483,33.63,85.647c0,0,11.878-3.563,7.865-17.294
		C41.346,68.127,40.813,62.109,32.753,59.07z"/>
	<path style="fill-rule:evenodd;clip-rule:evenodd;fill:#443A5F;" d="M25.576,80.211c0,0-10.452,1.48-12.757,8.191
		c0,0-4.073,10.258,3.454,15.917c0.055,0.384,9.008,6.282,19.136,0.874c0,0,10.171-7.341,1.576-19.174
		C36.764,85.854,34.2,80.298,25.576,80.211z"/>
	<path style="fill-rule:evenodd;clip-rule:evenodd;fill:#403656;" d="M42.077,100.375c0,0-9.074,5.371-8.642,12.405
		c0,0,0.155,11.067,9.38,13.379c0.201,0.335,10.887,2.314,18.157-6.705c0,0,6.467-10.727-6.141-18.196
		C54.565,101.191,50.037,97.145,42.077,100.375z"/>
	<path style="fill-rule:evenodd;clip-rule:evenodd;fill:#403656;" d="M39.765,118.526c0,0,6.68-8.278,3.775-14.728
		c0,0-4.05-10.292-13.499-9.098c-0.304-0.237-10.898,1.781-14.501,12.712c0,0-2.277,12.213,11.964,14.771
		C27.775,122.152,33.421,124.361,39.765,118.526z"/>
	<path style="fill-rule:evenodd;clip-rule:evenodd;fill:#4A4068;" d="M31.975,69.413c0,0-10.114,3.446-11.116,10.62
		c0,0-2.097,11.119,6.548,15.342c0.129,0.375,10.199,4.531,19.156-2.891c0,0,8.539-9.285-2.197-19.423
		C44.116,72.939,40.51,67.889,31.975,69.413z"/>
	<path style="fill-rule:evenodd;clip-rule:evenodd;fill:#443A5F;" d="M40.172,95.772c0,0-9.12-2.646-13.416,2.005
		c0,0-7.078,6.952-2.732,14.308c-0.089,0.335,5.296,8.266,15.458,7.338c0,0,10.655-2.435,7.88-14.871
		C47.244,104.343,47.106,98.964,40.172,95.772z"/>
	<path style="fill-rule:evenodd;clip-rule:evenodd;fill:#4A4068;" d="M60.623,81.426c0,0-10.667-0.098-13.963,6.215
		c0,0-5.625,9.615,1.163,16.318c0,0.389,8.146,7.479,19.007,3.497c0,0,11.053-5.829,4.265-18.649
		C70.899,88.612,69.155,82.786,60.623,81.426z"/>
	<path style="fill-rule:evenodd;clip-rule:evenodd;fill:#504570;" d="M37.399,43.563c0,0-10.498,2.466-12.136,9.503
		c0,0-3.082,10.855,5.265,15.871c0.097,0.384,9.887,5.471,19.563-1.057c0,0,9.423-8.421-0.516-19.517
		C49.335,48.218,46.138,42.858,37.399,43.563z"/>
	<path style="fill-rule:evenodd;clip-rule:evenodd;fill:#4A4068;" d="M70.708,68.946c0,0-1.312-10.309-7.427-12.525
		c0,0-9.377-3.95-14.39,3.655c-0.344,0.057-5.442,8.922-0.421,18.624c0,0,6.631,9.555,17.028,1.328
		C65.644,79.816,70.602,77.307,70.708,68.946z"/>
	<path style="fill-rule:evenodd;clip-rule:evenodd;fill:#679F48;" d="M71.289,42.575c0,0,1.063-2.63,1.939-3.498
		c0.876-0.868,3.976-8.045,4.46-8.547c0.486-0.501,2.411-2.22,2.715-2.332c0.304-0.108,1.194-1.12,1.938-2.331
		c0.748-1.209,1.885-3.518,3.103-5.05c1.22-1.529,3.528-3.987,4.268-5.245s3.414,0.636,3.491,1.555
		c0.078,0.023-2.646,4.42-3.104,4.855c-0.455,0.436-0.794,0.911-1.452,2.234c-0.776,1.555-1.676,3.494-2.426,3.981
		c-0.748,0.487-2.329,3.767-3.102,4.663c-0.773,0.896-2.974,4.336-3.684,5.439c-0.714,1.103-1.859,2.755-2.329,3.497
		C76.637,42.538,70.708,45.448,71.289,42.575z"/>
	<path style="fill-rule:evenodd;clip-rule:evenodd;fill:#504570;" d="M44.239,34.876c0,0-2.208,11.213,3.703,16.025
		c0,0,8.899,7.974,17.237,2.246c0.407,0.083,9.438-7.006,7.436-19.325c0,0-3.89-12.912-18.618-8.435
		C53.757,25.55,47.341,26.166,44.239,34.876z"/>
	<path style="fill-rule:evenodd;clip-rule:evenodd;fill:#443A5F;" d="M96.609,55.418c0,0-0.138-11.454-7.032-14.909
		c0,0-10.5-5.9-17.561,1.47c-0.418,0.003-7.854,8.816-3.328,20.394c0,0,6.521,11.774,20.185,4.365
		C89.079,66.529,95.331,64.593,96.609,55.418z"/>
</g>
</svg>
