<svg xmlns="http://www.w3.org/2000/svg" viewBox="0 0 141.73 141.73">
  <defs>
    <radialGradient id="melonBody" cx="35%" cy="30%" r="75%">
      <stop offset="0%" stop-color="#eff9b5" />
      <stop offset="65%" stop-color="#cde86f" />
      <stop offset="100%" stop-color="#8bb84f" />
    </radialGradient>
  </defs>
  <g>
    <path
      d="M89.64 24.88c3.11-5.37 10.62-10.55 16.72-10.06-5.07 2.41-9.7 7.48-11.84 13.3 5.72-.95 12.84 1.58 16.93 6.01-5.68-.32-11.5 1.18-16.16 4.13-2.11 1.33-4.27-11.18-5.65-13.38Z"
      fill="#5c8c3e"
    />
    <path
      d="M95.4 41.44c20.04 12.03 31.1 37.53 21.27 58.83-11.26 24.39-43.25 34.22-69.39 21.73C22.95 110.36 13.83 80.2 24 55.82 34.31 31.1 71.39 27.02 95.4 41.44Z"
      fill="#4f7f36"
    />
    <path
      d="M90.93 43.85c17.72 10.53 27.08 33.35 18.4 52.14-9.7 21-37.35 29.73-59.86 19-20.97-10.01-28.87-35.13-19.52-55.72 9.17-20.16 38.65-27.64 60.98-15.42Z"
      fill="url(#melonBody)"
    />
    <ellipse cx="70.86" cy="79.7" rx="40.5" ry="37.5" fill="#dff28b" opacity=".8" />
    <path
      d="M51.7 44.59c-3.95 7.62-5.26 16.74-3.88 25.32 1.59 9.79 5.79 18.44 7.35 28.23 1.11 6.93.7 14.25-1.34 20.95"
      fill="none"
      stroke="#78a544"
      stroke-linecap="round"
      stroke-width="5.7"
    />
    <path
      d="M69.62 41.68c-2.96 7.76-3.55 16.47-1.79 24.62 2.11 9.74 7.22 18.78 8.48 28.66.74 5.84.06 11.71-2.03 17.2"
      fill="none"
      stroke="#78a544"
      stroke-linecap="round"
      stroke-width="5.7"
    />
    <path
      d="M87.42 46.42c-.81 8.3.68 16.88 4.12 24.49 4.18 9.24 11.65 17.42 14.53 27.17 1.86 6.33 1.89 13.16.15 19.45"
      fill="none"
      stroke="#78a544"
      stroke-linecap="round"
      stroke-width="5.7"
    />
    <path
      d="M38.7 63.35c8.7 7.41 21.42 11.44 33.15 10.52 12.63-.99 24.77-7.5 37.4-7.56"
      fill="none"
      stroke="#93bf57"
      stroke-linecap="round"
      stroke-width="4"
      opacity=".75"
    />
    <path
      d="M35.47 86.89c8.19 5.17 17.98 8.27 27.88 8.81 16 .88 31.11-5.03 46.85-5.44"
      fill="none"
      stroke="#93bf57"
      stroke-linecap="round"
      stroke-width="4"
      opacity=".75"
    />
    <ellipse cx="54.72" cy="59.39" rx="10.6" ry="7.1" fill="#fff7c9" opacity=".8" transform="rotate(-22 54.72 59.39)" />
  </g>
</svg>
