<?xml version="1.0" encoding="iso-8859-1"?>
<!-- Generator: Adobe Illustrator 15.0.0, SVG Export Plug-In . SVG Version: 6.00 Build 0)  -->
<!DOCTYPE svg PUBLIC "-//W3C//DTD SVG 1.1//EN" "http://www.w3.org/Graphics/SVG/1.1/DTD/svg11.dtd">
<svg version="1.1" id="&#x30EC;&#x30A4;&#x30E4;&#x30FC;_1"
	 xmlns="http://www.w3.org/2000/svg" xmlns:xlink="http://www.w3.org/1999/xlink" x="0px" y="0px" width="141.732px"
	 height="141.731px" viewBox="0 0 141.732 141.731" style="enable-background:new 0 0 141.732 141.731;" xml:space="preserve">
<g>
	<path style="fill-rule:evenodd;clip-rule:evenodd;fill:#FFCCCC;" d="M73.827,16.895c0,0-30.484-1.182-41.151,9.109
		c-10.668,10.289-21.583,25.39-19.203,42.358c2.383,16.967,6.693,34.298,24.689,44.634c9.027,5.32,8.672,4.646,12.347,5.921
		c1.377,0.511,30.566,15.267,53.95-3.643c0.002-0.521,27.551-20.338,23.776-48.279c-0.085-0.667-1.438-38.045-33.834-44.18
		C94,22.502,84.725,16.804,73.827,16.895z"/>
	<path style="fill-rule:evenodd;clip-rule:evenodd;fill:#FCC0C0;" d="M43.148,115.857c2.798,1.536,3.897,1.946,5.208,2.364
		c-6.762-7.826-16.894-24.97-12.023-50.772c-1.097,0.412,5.352-31.209,35.662-40.989c0,0-39.167,4.25-41.148,54.653
		C30.921,80.242,30.839,101.597,43.148,115.857z"/>
	<path style="fill-rule:evenodd;clip-rule:evenodd;fill:#F2EDBD;" d="M17.571,87.166c3.422,10.148,9.326,19.359,20.591,25.83
		c9.027,5.32,8.672,4.646,12.347,5.921c1.377,0.511,30.566,15.267,53.95-3.643c0.002-0.379,14.486-10.898,21.008-27.306
		l-0.434,0.431c-2.284,2.279-3.15,3.261-3.755,4.083c-0.797,1.085-4.337,4.851-4.673,5.161c-1.229,1.136-6.99,8.705-6.99,8.705
		l0.627-7.619c0-1.668,0.182-2.927,0.03-3.99c-0.151-1.062,0-2.276,0-2.276s-1.22,1.974-1.372,2.731
		c-0.15,0.76-2.765,4.289-3.526,5.051c-0.762,0.758-1.981,3.186-2.743,4.098c-0.762,0.91-2.525,4.849-2.525,4.849
		s-0.372-5-0.218-6.215c0.151-1.215,0.151-2.278,0-3.645c-0.154-1.366-0.762-2.43-0.915-1.822c-0.151,0.607-1.066,3.037-1.828,4.555
		c-0.762,1.52-1.221,3.188-1.831,4.101l-2.275,4.109c0,0,0.143-1.833-0.009-3.199c-0.153-1.366-1.066-3.037-1.371-4.099
		c-0.305-1.063-1.372-3.188-1.372-3.188s-0.458,2.276-0.915,3.188c-0.456,0.909-1.066,2.125-1.372,3.643
		c-0.305,1.52-1.753,5.279-1.753,5.279s-0.229-3.457-0.534-3.913c-0.302-0.454-1.371-2.884-1.371-3.643s-1.372-3.188-1.372-3.188
		s-1.066,2.731-1.827,3.643c-0.762,0.912-1.522,2.886-2.287,4.101c-0.762,1.215-3.343,3.813-3.343,3.813s-0.558-1.721-0.772-2.447
		c-0.212-0.725-0.365-2.739-0.456-3.644c-0.091-0.901-0.916-5.921-0.916-5.921s-1.604,1.625-2.742,3.188
		c-1.139,1.564-1.292,3.866-1.839,4.264c-0.547,0.396-0.946,4.208-1.292,3.749c-0.347-0.459-2.111-4.952-2.356-5.733
		c-0.245-0.783-1.372-4.555-1.372-4.555s-0.847,2.158-1.372,3.187c-0.522,1.03-0.635,1.715-0.913,3.188
		c-0.28,1.476,0.508,3.828-0.102,3.101c-0.613-0.726-3.392-3.274-4.014-4.467c-0.624-1.193-3.202-4.555-3.202-4.555
		s-0.091,2.281,0,2.732c0.093,0.453,1.14,5.815,0.964,5.478s-2.87-3.205-3.804-3.652c-0.935-0.449-1.584-2.852-1.903-3.521
		c-0.321-0.668-3.032-4.679-3.032-4.679s0.144,2.889,0,4.555c-0.14,1.663,1.809,7.163,1.809,7.163s-1.666-2.182-1.809-2.608
		c-0.14-0.426-3.199-4.101-3.199-4.101l-3.2-5.465c0,0,0.017,1.613,0,2.732c-0.017,1.121,1.828,7.743,1.828,7.743l-3.199-3.188
		c0,0-3.543-4.662-3.658-5.465c-0.116-0.803-2.348-4.109-2.744-5.012c-0.396-0.9-1.828-3.641-1.828-3.641s0.192,2.377,0,3.641
		c-0.195,1.268,1.775,6.837,1.775,6.837s-1.583-2.757-2.235-3.647c-0.648-0.891-2.249-3.152-2.743-4.099
		c-0.492-0.945-1.828-3.188-1.828-3.188s-0.286,0.957,0,2.732c0.286,1.778,1.778,5.088,1.778,5.088s-0.762-0.942-4.065-4.632
		C20.575,91.075,18.453,88.334,17.571,87.166z"/>
	<path style="fill-rule:evenodd;clip-rule:evenodd;fill:#EBE3A0;" d="M48.356,118.222c-2.1-2.43-4.527-5.762-6.726-9.971
		l-3.01-2.998c0,0-3.543-4.662-3.658-5.465c-0.066-0.459-0.828-1.743-1.542-2.922c1.75,6.185,4.711,13.178,9.728,18.991
		C45.946,117.394,47.045,117.804,48.356,118.222z"/>
</g>
</svg>
