<?xml version="1.0" encoding="iso-8859-1"?>
<!-- Generator: Adobe Illustrator 15.0.0, SVG Export Plug-In . SVG Version: 6.00 Build 0)  -->
<!DOCTYPE svg PUBLIC "-//W3C//DTD SVG 1.1//EN" "http://www.w3.org/Graphics/SVG/1.1/DTD/svg11.dtd">
<svg version="1.1" id="money" xmlns="http://www.w3.org/2000/svg" xmlns:xlink="http://www.w3.org/1999/xlink" x="0px" y="0px"
	 width="141.73px" height="141.73px" viewBox="0 0 141.73 141.73" style="enable-background:new 0 0 141.73 141.73;"
	 xml:space="preserve">
<g>
	<path style="fill-rule:evenodd;clip-rule:evenodd;fill:#D0A42F;" d="M40.867,31.261c0,0-18.589,8.338-21.201,28.302
		c-0.097,0.833-4.099,29.945,12.242,46.515c-0.006,0.009,11.809,13.817,21.788,15.353c0,0.218,6.247,0.685,12.829,0
		c0.089,0.084,6.313-0.553,13.35,0.516c0,0,15.869,1.375,27.271-11.048c0,0.084,10.869-12.834,14.968-32.906
		c0.355,0,3.18-22.906-11.405-38.834c0.181,0-10.689-13.49-37.058-13.82C73.829,25.172,56.309,23.966,40.867,31.261z"/>
	<path style="fill-rule:evenodd;clip-rule:evenodd;fill:#BA9329;" d="M63.191,45.711c0,0,7.662,2.532,15.879,0
		c0.213-0.398,11.761-3.073,16.717-0.845c-0.493,0.295-3.266-3.466-15.149-1.796c0.04-0.375,6.803-6.55,10.134-7.496
		c-0.012-0.003-8.667,1.168-13.059,6.438C77.4,41.639,81.629,31.74,83.25,31.353c-1.443,0.195-6.943,6.19-8.224,9.415
		c0.231-0.132,1.057-10.051,1.538-11.105c-0.304,0.08-3.979,7.063-4.179,10.134c0.252,0.175-0.725-9.919-1.673-10.979
		c-0.192-0.447-0.573,9.595-0.836,11.823c-0.261-0.211-2.065-8.455-5.015-10.133c0.224,0.306,2.254,7.361,2.535,10.343
		c0.009,0.011,0.011,0.014,0.014,0.014c0.026-0.017-4.465-7.189-9.652-8.458c0.006,0.003,3.709,1.074,7.765,9.856
		c0.304-0.295-3.509-4.313-10.921-5.253c0.069-0.183,6.086,2.194,8.902,6.485c-0.22-0.155-9.357-3.205-16.744,0.478
		C46.759,43.97,56.146,41.59,63.191,45.711z"/>
	<path style="fill-rule:evenodd;clip-rule:evenodd;fill:#694221;" d="M73.173,46.794c0,0-3.437-24.203-8.498-26.97
		c-0.117,0-1.589-0.453-3.531,0.722c0.089,0-2.12,1.624-1.412,2.887c0-0.089,0.793,1.807,2.117,2.168
		c-0.086-0.18,5.623,4.603,9.24,21.213C71.678,46.814,72.122,46.806,73.173,46.794z"/>
</g>
</svg>
