<?xml version="1.0" encoding="iso-8859-1"?>
<!-- Generator: Adobe Illustrator 15.0.0, SVG Export Plug-In . SVG Version: 6.00 Build 0)  -->
<!DOCTYPE svg PUBLIC "-//W3C//DTD SVG 1.1//EN" "http://www.w3.org/Graphics/SVG/1.1/DTD/svg11.dtd">
<svg version="1.1" id="money" xmlns="http://www.w3.org/2000/svg" xmlns:xlink="http://www.w3.org/1999/xlink" x="0px" y="0px"
	 width="141.73px" height="141.73px" viewBox="0 0 141.73 141.73" style="enable-background:new 0 0 141.73 141.73;"
	 xml:space="preserve">
<g>
	<path style="fill-rule:evenodd;clip-rule:evenodd;fill:#5DAE48;" d="M77.416,16.814c0,0-40.053-5.012-53.759,25.145
		c-0.513-0.043-23.575,30.794,8.527,67.895c-0.023,0.24,29.966,26.975,63.643,9.389c0.327-0.701,33.458-12.514,30.562-55.443
		C126.902,63.839,121.213,20.438,77.416,16.814z"/>
	<path style="fill-rule:evenodd;clip-rule:evenodd;fill:#2E414F;" d="M67.652,24.496c0,0-1.163,1.357-1.768,2.28
		c-0.602,0.919-1.229,2.08-1.274,2.561s0.444,0.765-0.416,1.664c-0.862,0.899-1.254,2.323-1.813,2.761
		c-0.559,0.438-1.137,1.12-0.974,2.103c0.166,0.985,0.888,1.529,0.564,2.229c-0.326,0.702-2.182,3.944-2.483,4.405
		c-0.304,0.458-1.232,2.08-0.811,3.085c0.421,1.005,1.097,2.031,1.24,3.257c0.143,1.226,0.029,2.429-0.343,3.609
		c-0.37,1.183-0.393,1.423-0.974,2.102c-0.579,0.682-1.183,1.601-1.509,2.303c-0.324,0.699-0.324,0.699-0.204,2.165
		c0.118,1.464-0.091,0.962,0.705,3.455c0.796,2.492,1.61,2.074,0.982,3.234c-0.627,1.16-0.951,1.861-1.578,3.021
		c-0.627,1.163-0.647,1.403-0.716,2.125c-0.069,0.723,2.569,5.549,3.202,7.058c0.63,1.507,0.885,1.526,0.47,3.191
		c-0.416,1.663-0.696,1.882-0.762,2.606c-0.068,0.722-1.117,0.876-0.954,1.861c0.166,0.982,0.421,1.003,0.842,2.008
		c0.421,1.006,0.725,0.547,0.865,1.77c0.144,1.227,0.375,1.487,0.052,2.189c-0.327,0.698,0.046-0.481-0.905,1.38
		c-0.951,1.862-0.928,1.621-1.277,2.561c-0.347,0.942,0.238,2.931,0.682,3.695s1.146,1.55,1.587,2.313
		c0.444,0.766,0.865,1.771,1.077,2.275c0.209,0.5-0.484,2.382-0.552,3.104c-0.069,0.726-0.275,2.891-0.089,3.633
		c0.188,0.745,0.398,1.246,0.819,2.251l1.054,2.512c0.421,1.006,0.375,1.487,0.538,2.472c0.167,0.982-0.045,0.481,0.307,2.209
		c0.353,1.728,0.564,2.229,0.773,2.732c0.212,0.501,1.077,2.271,1.077,2.271s1.438-1.578,1.251-2.323l-0.562-2.229
		c0,0-0.421-1.005-0.375-1.486c0.043-0.481,0.37-1.183,0.951-1.862c0.579-0.678,0.602-0.922,0.67-1.644s0.023-0.241-0.118-1.464
		c-0.143-1.226-0.12-1.467-0.564-2.23c-0.444-0.762-1.773-3.057-1.916-4.283c-0.141-1.223-0.398-1.242-0.284-2.448
		c0.114-1.203,0.438-1.901,0.788-2.845c0.347-0.941,0.556-0.438,0.928-1.62c0.369-1.184-0.006-2.67,0.04-3.151
		c0.046-0.48,0.934,1.049-0.607-1.747c-1.544-2.796-1.77-0.39-1.73-3.54c0.04-3.148,0.736-5.032,1.317-5.711
		c0.579-0.68,0.859-0.9,1.16-1.361c0.301-0.458,0.507-2.626,0.599-3.589c0.092-0.962,0.161-1.684-0.261-2.689
		c-0.421-1.005-0.653-1.266-0.796-2.491c-0.141-1.224,0.16-1.685,0.229-2.406s0.069-0.722,0.415-1.664
		c0.161-0.436,0.244-0.619,0.295-0.808c0.061-0.22,0.083-0.45,0.144-1.094c0.115-1.203,0.395-1.423-0.003-2.669
		c-0.398-1.246-0.353-1.727-1.263-3.016c-0.911-1.286-1.166-1.309-1.564-2.555c-0.398-1.246-0.398-1.246-0.564-2.229
		c-0.164-0.985-0.049-2.188,0.086-3.632c0.137-1.443,1.277-2.563,1.881-3.483c0.602-0.919,2.065-2.738,2.18-3.944
		c0.115-1.203-0.002-2.667,0.201-4.832c0.207-2.168-0.261-2.689-0.401-3.916c-0.143-1.226-0.307-2.208-0.146-3.893
		c0.158-1.684,0.017-2.91,0.341-3.612c0.327-0.699-0.209-0.501,0.742-2.363s0.974-2.103,1.065-3.065l0.252-2.646
		c0.066-0.722,0.415-1.664,0.415-1.664L67.652,24.496z"/>
	<path style="fill-rule:evenodd;clip-rule:evenodd;fill:#2E414F;" d="M71.327,23.829c0,0,2.571,5.551,2.781,6.052
		c0.212,0.501,1.169,1.309,1.821,2.578c0.653,1.266,1.286,2.772,1.495,3.277c0.212,0.501,0.843,2.008,1.544,2.795
		c0.699,0.785,1.397,1.57,1.818,2.575c0.422,1.005,0.68,1.025,0.797,2.492c0.12,1.464,0.329,1.968,0.028,2.429
		c-0.304,0.458-0.559,0.438-1.231,2.08c-0.671,1.644-0.249,2.646-0.249,2.646s0.163,0.985,0.63,1.509
		c0.467,0.524,1.656,1.593,1.799,2.815c0.141,1.227,0.353,1.728,0.492,2.953c0.144,1.223,0.814-0.418,0.098,1.705
		c-0.719,2.125-1.02,2.583-0.811,3.087c0.212,0.501,0.871,4.437,1.058,5.182c0.188,0.742,0.513,0.043,0.097,1.704
		c-0.415,1.664-0.393,1.424-1.02,2.583c-0.627,1.164-0.627,1.164-1.231,2.083c-0.602,0.92,1.729,3.54,1.729,3.54
		s-0.046,0.481,0.098,1.704c0.141,1.226,0.562,2.231,0.562,2.231s0.722,0.544,0.375,1.484c-0.347,0.941-0.696,1.884-0.742,2.365
		s-0.578,0.679-0.392,1.424c0.188,0.741,0.143,1.223,0.609,1.747c0.465,0.523,0.908,1.288,1.098,2.03
		c0.186,0.745,0.141,1.227,0.051,2.188c-0.091,0.963,0.892,4.196,0.892,4.196s-0.951,1.861-0.997,2.343s0.143,1.226-0.719,2.125
		c-0.859,0.899-1.908,1.054-1.996,2.017c-0.092,0.963,0.025,2.429,0.025,2.429s-0.438,1.904-0.762,2.604
		c-0.326,0.701-0.84,0.658-0.908,1.38l-0.227,2.409l-0.184,1.925c-0.046,0.481-0.392,1.42-0.973,2.103
		c-0.582,0.679-0.674,1.641-0.743,2.363c-0.067,0.721,0.144,1.225-0.438,1.904c-0.581,0.679-0.974,2.103-1.274,2.563
		c-0.304,0.459-1.186,1.599-1.186,1.599s1.885-0.813,2.675-0.991c0.79-0.178,1.326-0.375,1.652-1.076
		c0.324-0.699,0.883-1.141,0.951-1.861c0.068-0.723,0.068-0.723,0.647-1.401c0.581-0.679-0.813,0.418,1.163-1.36
		c1.976-1.775,2.442-1.252,2.835-2.676c0.189-0.688,0.267-0.816,0.313-0.959c0.052-0.148,0.065-0.313,0.148-1.186
		c0.161-1.685-0.237-2.931,0.344-3.609c0.582-0.679,0.929-1.621,1.51-2.3c0.578-0.682-0.068,0.722,1.184-1.602
		c1.254-2.323,1.277-2.563,1.134-3.786c-0.141-1.226-1.217-3.497-0.913-3.959c0.3-0.458,0.624-1.159,0.973-2.102
		c0.348-0.939,1.51-2.301,1.556-2.781c0.043-0.481,0.507-2.627,0.599-3.589c0.089-0.962,0.181-1.925-0.006-2.667
		c-0.188-0.744-0.489-0.283-0.375-1.486c0.115-1.206-0.375-1.486-0.028-2.429c0.349-0.942,0.372-1.183,0.719-2.123
		c0.347-0.942,0.581-0.681,0.719-2.125c0.135-1.443,0.108-3.872-0.335-4.638c-0.443-0.761-1.541-2.795-1.541-2.795
		s-1.191-1.068-1.566-2.555c-0.375-1.487-0.585-1.988-0.751-2.973C88.584,65.036,89,63.372,89,63.372l0.719-2.122
		c0,0,1.165,1.309-0.564-2.231c-1.728-3.537-2.566-2.878-1.658-4.259c0.904-1.381,0.813-0.418,0.996-2.343
		c0.181-1.925,0.859-0.899-0.613-4.417c-1.475-3.518-2.571-5.551-2.623-7.736c-0.049-2.188-0.095-1.707-0.261-2.689
		c-0.163-0.985-1.962-3.801-1.962-3.801s-0.513-0.043-1.424-1.332c-0.908-1.289-3.941-4.691-3.941-4.691s-0.512-0.043-1.4-1.573
		L75.38,24.65l-1.679-1.352l-2.958-1.458L71.327,23.829z"/>
	<path style="fill-rule:evenodd;clip-rule:evenodd;fill:#2E414F;" d="M89.16,122.184c2.202-0.799,4.428-1.772,6.667-2.941
		c0.015-0.028,0.075-0.071,0.179-0.132c0.076-0.277,0.146-0.47,0.291-0.729c0.267-0.479,1.049-1.189,1.576-1.902
		s0.261-0.234,2.349-2.131c2.088-1.894,2.088-1.894,2.872-2.842c0.788-0.95,1.32-1.904,2.104-2.612
		c0.781-0.71,1.042-0.948,1.568-1.661c0.527-0.713,0.268-0.476,1.055-1.426c0.787-0.948,1.559-1.178,1.836-2.134
		c0.275-0.957,0.286-1.438,0.567-2.636c0.28-1.194-0.241-0.722,0.563-2.392c0.803-1.67,0.809-1.91,1.077-2.627
		c0.272-0.716,0.808-1.907,0.837-3.11c0.025-1.199,0.052-2.4,0.578-3.11c0.524-0.713,1.063-1.904,1.338-2.861
		c0.277-0.956,0.564-2.395,0.578-3.113c0.018-0.72-0.266,0.476-0.473-1.688c-0.209-2.165-0.215-1.925-0.197-2.644l0.04-1.922
		c0.022-0.959-0.218-1.684,0.055-2.4c0.27-0.716,0.274-0.956,0.301-2.156c0.028-1.2,0.061-2.641,0.329-3.354
		c0.098-0.255,0.123-0.329,0.146-0.404c0.037-0.137,0.051-0.278,0.406-1.509c0.553-1.911,0.584-3.351,0.599-4.073
		c0.018-0.719,0.521-0.47,0.032-1.438c-0.49-0.971-0.474-1.69-0.714-2.415c-0.237-0.725-0.982-1.696-0.974-2.177
		c0.012-0.481-0.255-0.005-0.479-1.449c-0.224-1.443-0.218-1.684-0.452-2.649c-0.235-0.962-0.441-3.127-0.677-4.093l-0.47-1.931
		c0,0-0.728-1.693-0.974-2.177c-0.243-0.484-1.483-2.188-1.483-2.188l-1.492-1.947c0,0,0.741,1.214-1.75-1.713
		c-2.492-2.928-1.498-1.707-2.987-3.658c-1.492-1.948-0.997-1.217-2.231-3.162c-1.237-1.945-2.755-2.695-4.019-3.44
		c-0.553-0.327-0.622-0.364-0.693-0.393c-0.095-0.031-0.194-0.046-1.332-0.604c-2.024-1-0.75-0.736-2.535-1.008
		c-0.191-0.029-0.32-0.046-0.403-0.055c0.163,0.052,0.221,0.078,0.218,0.083c-0.008,0.026-0.615-0.123-0.218-0.083
		c-0.246-0.08-0.735-0.22-1.633-0.464c-3.817-1.031-3.817-1.031-4.838-1.292c-1.019-0.26-0.767-0.014-2.549-0.527
		c-1.784-0.516-2.291-0.765-3.565-1.028c-1.275-0.266-2.028-1.002-4.067-1.521c-2.043-0.519-3.861,0.65-3.861,0.65l3.054,1.02
		c0.765,0.255,2.789,1.495,3.551,1.75c0.766,0.255,2.799,1.014,3.555,1.51c0.759,0.495,2.028,1,3.297,1.503
		c1.271,0.504,1.28,0.023,2.802,0.773c1.521,0.748,2.543,0.768,3.552,1.506c1.008,0.739,1.775,0.753,2.271,1.484
		c0.496,0.73-0.017,0.719,1.237,1.945c1.252,1.223,1.762,1.234,2.51,2.208c0.744,0.974,2.008,1.718,1.993,2.438
		c-0.017,0.722,1.784,0.272,1.229,2.185c-0.553,1.914-0.823,2.63,0.43,3.853c1.251,1.223,1.755,1.473,2.251,2.203
		c0.495,0.728,0.489,0.968,1.492,1.948c0.999,0.977,0.765,0.012,1.489,1.948c0.725,1.933,1.449,3.867,1.684,4.832
		c0.235,0.965,0.471,1.93,0.192,2.887c-0.274,0.954,0.874,6.739,0.604,7.456c-0.271,0.716-0.547,1.672-0.57,2.632
		c-0.02,0.959-0.541,1.432-0.051,2.4c0.489,0.968,0.229,1.207,1.214,2.902c0.985,1.698,1.209,3.142,1.187,4.102
		c-0.021,0.959-1.069,2.145-1.069,2.145l-0.547,1.674c0,0,0.997,1.217,0.73,1.692s-0.521,0.473-0.799,1.43
		c-0.275,0.956-1.077,2.623-1.354,3.58c-0.275,0.956-1.111,4.067-1.121,4.548c-0.011,0.479-0.558,2.154-0.581,3.113l-0.046,2.16
		c-0.012,0.481-0.559,2.154-0.83,2.873c-0.27,0.716,0.209,2.162-0.573,2.873c-0.782,0.71-4.675,3.297-4.949,4.253
		c-0.278,0.96-0.547,1.676-1.074,2.389c-0.527,0.714-0.527,0.714-0.799,1.429c-0.272,0.72-1.839,2.141-2.621,2.851
		c-0.782,0.711-2.366,2.851-2.632,3.328c-0.267,0.479-1.049,1.188-1.57,1.661C91.07,120.769,89.965,121.591,89.16,122.184z"/>
	<path style="fill-rule:evenodd;clip-rule:evenodd;fill:#2E414F;" d="M54.428,122.327c0.484,0.158,0.971,0.313,1.467,0.461
		c-0.267-0.584-0.831-1.664-1.226-2.343c-0.444-0.765-1.979-0.894-2.168-1.636c-0.186-0.741-1.962-3.801-1.962-3.801
		s-1.12-1.79-2.008-3.319c-0.888-1.529-0.14-1.223-0.215-3.171c-0.074-1.948-0.12-1.467-0.283-2.448
		c-0.167-0.982-0.235-0.261-2.1-2.357c-1.868-2.094-0.934-1.046-1.143-1.55c-0.211-0.501-0.352-1.728,0.017-2.91
		c0.37-1.18,0.997-2.343,0.997-2.343s-1.332-2.292-1.707-3.778c-0.375-1.486-0.842-2.011-1.263-3.017
		c-0.421-1.005-0.14-1.223-0.049-2.188c0.092-0.963,0.138-1.443-0.45-3.432c-0.584-1.988-1.332-2.294-1.75-3.3
		c-0.421-1.003-0.398-1.243-0.587-1.987c-0.187-0.742,0.3-0.461,0.719-2.123c0.181-0.721,0.261-0.904,0.315-1.094
		c0.069-0.249,0.095-0.513,0.238-2.014c0.252-2.649-0.75-2.973-0.312-4.878c0.438-1.904,0.114-1.203-0.029-2.429
		c-0.141-1.223,0.138-1.443-0.516-2.709c-0.653-1.266-0.444-0.765-0.375-1.487c0.068-0.722,0.114-1.203,0.438-1.904
		c0.327-0.702-0.048-2.186,0.063-3.392c0.115-1.203,0.396-1.42,0.974-2.103c0.581-0.679,0.839-0.658,1.163-1.357
		c0.324-0.702,0.582-0.679,1.209-1.842c0.624-1.16,0.157-1.684,0.157-1.684s-0.375-1.486-0.959-3.474
		c-0.587-1.991,0.301-0.461,1.765-2.28c1.463-1.818,0.951-1.861,1.254-2.323c0.301-0.458-0.656-1.266-0.61-1.747
		c0.046-0.481,0.604-0.922,1.163-1.36c0.559-0.438,1.931-1.295,1.931-1.295l1.206-1.842c-0.186-0.742,0.438-1.902,0.438-1.902
		l2.747-1.715c0,0,1.742-2.04,3.672-3.334c1.931-1.294,0.859-0.899,1.418-1.337c0.556-0.438,2.163-1.034,2.163-1.034l2.675-0.991
		l4.749-1.063c0,0,1.251-2.323,0.716-2.125c-0.536,0.201-2.186,1.275-4.024,1.61c-1.839,0.332-1.326,0.375-2.887,0.487
		c-1.559,0.115-2.303-0.189-3.864-0.077c-1.558,0.114-1.907,1.057-2.489,1.735c-0.579,0.679-1.183,1.601-2.02,2.257
		c-0.836,0.659-0.816,0.418-2.166,1.034c-1.349,0.615-1.858,0.575-2.721,1.475c-0.859,0.899-0.324,0.699-0.415,1.662
		c-0.092,0.962-1.487,2.062-1.533,2.543c-0.046,0.481-0.582,0.679-1.441,1.578s-0.859,0.899-1.976,1.776
		c-1.114,0.879-0.951,1.862-1.274,2.563s-0.484,2.386-0.622,3.83c-0.138,1.443-0.65,1.4-1.232,2.082
		c-0.579,0.679-1.395,1.097-2.463,1.492c-1.071,0.398-0.558,0.438-1.44,1.578c-0.882,1.14-0.65,1.404-0.696,1.885
		c-0.046,0.481,0.189,0.742,1.054,2.512c0.862,1.77,0.375,1.486,0.47,3.193c0.098,1.705,0.098,1.705,0.029,2.426l-0.229,2.406
		c0,0-1.186,1.601-1.486,2.063c-0.301,0.458-0.16,1.684-0.275,2.887s0.398,1.246,0.587,1.987c0.186,0.745,0.186,0.745,0.842,2.011
		c0.653,1.267,0.33,1.968,0.705,3.454c0.375,1.486,0.169,3.652-0.132,4.113c-0.303,0.461-0.046,0.481-0.441,1.905
		c-0.393,1.421-0.046,0.481,0.352,1.727c0.398,1.246,0.911,1.286,2.22,3.821c1.309,2.535-0.063,3.391-0.063,3.391
		s-0.418,1.662-0.464,2.146c-0.046,0.481-0.301,0.458-0.415,1.662c-0.115,1.202,3.686,4.671,4.342,5.937
		c0.653,1.27-0.114,1.206-0.183,1.928c-0.069,0.723-0.37,1.181-0.416,1.662c-0.046,0.48,0.284,2.448,2.148,4.545
		c1.868,2.094,2.054,2.839,2.054,2.839c0.467,0.523,0.166,0.982,0.12,1.464l-0.229,2.405c-0.115,1.206,0.957,0.809,1.401,1.572
		c0.444,0.766,2.543,3.122,2.543,3.122c0.444,0.766,0.722,0.545,1.934,1.372c1.211,0.828,1.469,0.849,1.469,0.849L54.428,122.327z"
		/>
	<path style="fill-rule:evenodd;clip-rule:evenodd;fill:#2E414F;" d="M44.266,21.769c-8.181,3.698-15.928,9.893-20.608,20.19
		c-0.513-0.043-23.575,30.794,8.527,67.895c-0.008,0.077,3.085,2.89,8.401,6.089l-0.894-0.861l-4.104-3.008
		c0,0-1.656-1.593-2.821-2.901c-1.166-1.309-0.934-1.046-1.355-2.051c-0.421-1.006-0.865-1.771-1.051-2.512
		c-0.189-0.745-0.888-1.529-1.821-2.578s-0.444-0.765-0.63-1.507c-0.189-0.745-0.865-1.771-1.309-2.534
		c-0.444-0.766-0.352-1.728-1.031-2.753l-1.352-2.054c-0.679-1.025-0.656-1.266-1.077-2.271c-0.421-1.006-0.398-1.246-0.561-2.229
		c-0.167-0.985-0.888-1.529-1.097-2.033c-0.212-0.502-1.077-2.271-1.286-2.773c-0.212-0.504-0.097-1.707-0.028-2.428
		c0.068-0.723,0.114-1.203-0.095-1.705c-0.212-0.504-0.962-3.477-1.125-4.459c-0.167-0.985-1.077-2.271-1.521-3.037
		c-0.444-0.764-0.163-0.984-0.049-2.188c0.115-1.203,0.415-1.664,0.507-2.627l0.252-2.646l0.204-2.165c0,0,1.318-5.714,2.549-7.794
		c1.229-2.082-0.166-0.985-0.121-1.466c0.046-0.481,0.65-1.401,1.232-2.08c0.579-0.682,1.251-2.323,2.111-3.222
		c0.278-0.289,0.375-0.393,0.352-0.458c-0.045-0.138-0.63-0.112-1.217-1.312c-0.862-1.77,0.604-0.919,1.163-1.358
		c0.559-0.441,0.882-1.14,1.509-2.303c0.627-1.16,0.37-1.18,0.719-2.123c0.346-0.942,0.647-1.4,1.274-2.563
		c0.627-1.16,1.168-0.275,2.4-2.357c1.229-2.083,1.512-1.679,2.094-2.357s1.656-1.693,2.214-2.134
		c0.556-0.438,1.381-0.667,2.452-1.065c1.068-0.396,0.988-1.962,3.408-2.973c2.42-1.014-0.089-0.937,1.865-2.472
		c1.953-1.536,1.63-0.837,2.443-1.252c0.814-0.418,1.071-0.398,2.14-0.793c1.071-0.398,1.584-0.355,3.678-0.667
		c2.093-0.312,1.071-0.395,3.442-0.928c2.375-0.53,1.329-0.375,1.862-0.573c0.536-0.197,1.025,0.083,1.538,0.126
		c0.513,0.042,2.352-0.29,2.352-0.29s1.28,0.106,2.025,0.41s2.515,0.693,2.515,0.693l3.563,0.539c0,0-0.908-1.289-2.377-2.14
		c-1.469-0.848-1.492-0.607-2.237-0.911s-2.048-0.169-2.841,0.006c-0.791,0.178-4.723,0.822-6.003,0.716
		c-1.28-0.105-1.025-0.083-2.583,0.029c-1.561,0.115-2.352,0.292-3.168,0.71c-0.813,0.418-1.349,0.616-1.882,0.813
		c-0.536,0.197-1.326,0.375-1.862,0.573C44.813,21.697,44.563,21.738,44.266,21.769z"/>
	<path style="fill-rule:evenodd;clip-rule:evenodd;fill:#2E414F;" d="M74.214,16.573c-1.283-0.057-2.91-0.094-4.792-0.057
		c-0.083,0.476-0.281,1.383-0.733,2.486c-0.673,1.641-0.252,2.646-0.252,2.646s2.721-1.472,3.024-1.934
		c0.3-0.458,0.324-0.699,1.207-1.839C73.068,17.361,73.673,16.911,74.214,16.573z"/>
	<path style="fill-rule:evenodd;clip-rule:evenodd;fill:#2E414F;" d="M103.802,25.816c-4.036-2.792-8.762-5.15-14.292-6.785
		l-0.17-0.018l-2.305-0.192l-3.332-0.275c-1.022-0.086-4.49,1.083-2.838,0.009c1.649-1.077-1.304,0.134-2.329,0.048
		c-1.025-0.085-0.79,0.178-2.374,0.533C74.581,19.489,74.3,19.71,74.3,19.71l-1.979,1.435l-1.624,1.177l6.934-2.337l6.447,0.048
		l3.309,0.516c0,0,1.002,0.327,1.512,0.367l2.307,0.192c0.771,0.063,1.234,0.587,2.472,1.174c1.234,0.587,1.979,0.891,1.979,0.891
		s3.217,1.48,4.963,2.111C101.951,25.762,103.025,25.799,103.802,25.816z"/>
	<path style="fill-rule:evenodd;clip-rule:evenodd;fill:#6B5236;" d="M68.615,20.182c0,0-1.252,0.73-1.501,0.47
		c-0.247-0.264-1.125-0.121-1.498,0c-0.375,0.117-0.733,0.59-1,0.467c-0.27-0.121-1,0.47-1,0.47s0.324,0.157,0,0.47
		c-0.326,0.315-0.756-0.063-0.501,0.47c0.255,0.533,0.095,1.14,0.501,1.409c0.404,0.266,0.046,0.69,1,0.937
		c0.951,0.246,1.094,0.16,1.999,0.47c0.902,0.313,0.793,0.627,1.501,0.47c0.705-0.157,0.587,0.157,1.498,0
		c0.914-0.157,1.81-0.553,2.5-0.47c0.69,0.083,0.929-0.41,1.501-0.47c0.57-0.06,1.498-0.47,1.498-0.47l0.501-0.467
		c0,0,0.046-0.773,0-0.939s-0.467-0.413-0.501-0.939c-0.031-0.524-0.178-1.624-1-1.876c-0.821-0.252-1.898-0.229-2.5-0.469
		c-0.599-0.241-1.609-0.928-1.999-0.47C69.228,19.701,68.615,20.182,68.615,20.182z"/>
	<path style="fill-rule:evenodd;clip-rule:evenodd;fill:#5E472F;" d="M66.735,23.683l-0.346-1.974l5.88-0.498
		c-0.018-0.055,0.1,1.626-0.069,1.901C72.264,23.038,69.731,25.066,66.735,23.683z"/>
	<path style="fill-rule:evenodd;clip-rule:evenodd;fill:#9D784F;" d="M68.993,20.306c0,0-2.28,0.295-2.589,1.257
		c-0.109,0.091,0.037,1.543,2.807,1.249c-0.003-0.005,2.752-0.369,3.05-1.586C72.258,21.228,72.438,20.205,68.993,20.306z"/>
	<path style="fill-rule:evenodd;clip-rule:evenodd;fill:#ECC288;" d="M69.15,20.784c0,0-1.298,0.141-1.473,0.596
		c-0.063,0.042,0.021,0.73,1.596,0.593c-0.003-0.003,1.563-0.175,1.732-0.753C71.006,21.222,71.109,20.738,69.15,20.784z"/>
</g>
</svg>
